REM Ripping Tool: trurip

FILE "Urusei Yatsura - Stay With You (1990)(Hudson)(JP).img" BINARY
  TRACK 01 AUDIO
    INDEX 01 00:00:00
  TRACK 02 MODE1/2352
    INDEX 00 00:44:65
    INDEX 01 00:47:71
  TRACK 03 AUDIO
    INDEX 00 21:14:68
    INDEX 01 21:16:68
  TRACK 04 AUDIO
    INDEX 01 23:55:14
  TRACK 05 MODE1/2352
    INDEX 00 27:25:30
    INDEX 01 27:28:31

REM DISC HASHES
REM CRC32 : fb57edbd
REM MD5   : dfd956d9be68e8cfe996b149c8d5ac95
REM SHA1  : 987babcd7667e34f85b01d356e2f488f1f30f8cd

REM Gap Append Method: Prev [crc32]
REM Trk 01: 47a30839
REM Trk 02: 145aa919
REM Trk 03: 13623b3c
REM Trk 04: 1d00d0a7
REM Trk 05: f0b26b97

REM Gap Append Method: Prev [md5]
REM Trk 01: 390f4ec396b1f0e8408f97ffbdce3db2
REM Trk 02: d8283aef1ca93e1a3d616725d153547b
REM Trk 03: bfc09988a290522a05c874f41f7afd87
REM Trk 04: b7e7ebb813ca2715d2c9d8ca5b4b0214
REM Trk 05: 82a04dfa88bd3b91a50c756c1945a719

REM Gap Append Method: Prev [sha1]
REM Trk 01: 5be9dc07dacc1772a4a4c1c699190f23ff04189c
REM Trk 02: 6a38daac5277f31bec1a0260dcabbf67e098c4da
REM Trk 03: f6fb2e9d4d9c90a293ef55b84d6329e8e5de916a
REM Trk 04: e397529eead6ec54748596bf95785bf84575d0d6
REM Trk 05: 2286adc2af2af37409f436c52e7610ffbe2e6456

REM Gap Append Method: None [crc32]
REM Trk 01: d86727d8
REM Trk 02: b8e72939
REM Trk 03: 13623b3c
REM Trk 04: a474cfd2
REM Trk 05: f0b26b97
REM Gap 02: 1c88fabb
REM Gap 03: 7abe247f
REM Gap 05: bc6470d2

REM Gap Append Method: None [md5]
REM Trk 01: f702ad20e83b365305b0b938b7446785
REM Trk 02: d3f357cd0a9ee440511b5dfa53639b14
REM Trk 03: bfc09988a290522a05c874f41f7afd87
REM Trk 04: 05d02962931a597913a81e86e050c5fb
REM Trk 05: 82a04dfa88bd3b91a50c756c1945a719
REM Gap 02: 75461da31ca946a1c932d612964884b3
REM Gap 03: 9df204fbc98bb8965081cb30a89715fc
REM Gap 05: 88ffc9d2e2a1c5d9ec3c43f8fd7c95ec

REM Gap Append Method: None [sha1]
REM Trk 01: 2fce8077f9dbc58a385cb3ad1e1af4d6570250bc
REM Trk 02: 838dec250d6f150f42feb6b5a8be5925f2458cf5
REM Trk 03: f6fb2e9d4d9c90a293ef55b84d6329e8e5de916a
REM Trk 04: 0e64256f0553408126ca42f7b65b2aa105be971c
REM Trk 05: 2286adc2af2af37409f436c52e7610ffbe2e6456
REM Gap 02: 89ae0754aed0127dc2b66dbaaa0a07e7b6c3d127
REM Gap 03: cbe29e0bd725ef1194f8c47619dd42078e841de2
REM Gap 05: aa6251552b67747595e82a0f0d18bffe427b055a

REM Gap Append Method: Next [crc32]
REM Trk 01: d86727d8
REM Trk 02: 51318ded
REM Trk 03: d47a7701
REM Trk 04: a474cfd2
REM Trk 05: 25b814ff

REM Gap Append Method: Next [md5]
REM Trk 01: f702ad20e83b365305b0b938b7446785
REM Trk 02: 50b2a424cc3c6699c6a182ba02e93a28
REM Trk 03: 2dbc6b42031f989e7e405bf68c91e7d9
REM Trk 04: 05d02962931a597913a81e86e050c5fb
REM Trk 05: a876a89d93dd0cf5d03433052cc12213

REM Gap Append Method: Next [sha1]
REM Trk 01: 2fce8077f9dbc58a385cb3ad1e1af4d6570250bc
REM Trk 02: 990ff9cd8c443d1a8b0d25b044e3ffea4e175e6a
REM Trk 03: 692432fd307f4a980c3fc77318aa6794076d08dd
REM Trk 04: 0e64256f0553408126ca42f7b65b2aa105be971c
REM Trk 05: b1bbcc5afbcd47e0b0ae96cf3f1b5ac477c8b7d2

